<svg id="svg" xmlns="http://www.w3.org/2000/svg" xmlns:xlink="http://www.w3.org/1999/xlink" width="400" height="400" viewBox="0, 0, 400,400" version="1.1"><g id="svgg"><path id="path0" d="M145.620 48.955 C 129.589 57.109,111.613 65.746,111.092 65.546 C 110.817 65.441,110.632 65.500,110.680 65.677 C 110.837 66.261,90.874 75.958,90.012 75.717 C 89.433 75.555,89.366 75.591,89.751 75.857 C 90.135 76.122,83.348 79.655,63.382 89.584 C 48.595 96.938,36.496 103.112,36.496 103.305 C 36.496 103.498,38.482 106.109,40.910 109.107 C 43.660 112.503,45.221 114.725,45.051 115.000 C 44.887 115.265,44.931 115.347,45.160 115.205 C 45.607 114.929,54.587 126.130,54.512 126.869 C 54.484 127.141,54.602 127.278,54.773 127.172 C 55.222 126.895,62.470 136.102,62.177 136.577 C 62.036 136.804,62.099 136.870,62.323 136.732 C 62.814 136.429,64.308 138.270,63.990 138.785 C 63.861 138.994,63.923 139.061,64.127 138.934 C 64.488 138.711,77.823 155.036,78.016 155.937 C 78.141 156.520,64.673 173.207,64.185 173.075 C 63.981 173.020,63.915 173.137,64.037 173.336 C 64.346 173.835,58.412 181.076,57.935 180.781 C 57.724 180.651,57.657 180.714,57.785 180.923 C 58.072 181.386,56.634 183.295,56.200 183.027 C 56.030 182.921,55.771 183.027,55.626 183.262 C 55.461 183.529,55.520 183.592,55.783 183.429 C 56.512 182.978,56.245 183.603,55.077 185.077 C 54.458 185.860,53.775 186.392,53.561 186.259 C 53.331 186.117,53.279 186.191,53.434 186.442 C 53.734 186.928,51.172 190.237,50.714 189.954 C 50.550 189.852,50.297 189.961,50.151 190.196 C 49.986 190.463,50.045 190.526,50.309 190.363 C 50.981 189.948,50.795 190.704,50.062 191.368 C 49.694 191.700,49.257 191.849,49.091 191.698 C 48.924 191.547,48.907 191.630,49.052 191.882 C 49.342 192.386,46.816 195.726,46.358 195.443 C 46.207 195.349,45.774 195.638,45.395 196.085 L 44.708 196.898 45.529 196.203 C 47.292 194.710,46.167 196.378,42.192 201.153 C 39.909 203.894,37.462 206.896,36.754 207.822 C 35.962 208.860,35.396 209.328,35.281 209.042 C 35.178 208.786,35.081 209.017,35.065 209.555 C 35.046 210.213,35.245 210.571,35.675 210.650 C 36.247 210.754,77.658 231.603,78.102 232.010 C 78.203 232.102,78.367 247.396,78.467 265.997 L 78.650 299.818 84.412 302.753 C 87.582 304.368,90.050 305.814,89.898 305.966 C 89.745 306.118,89.864 306.149,90.162 306.035 C 90.460 305.921,94.232 307.572,98.545 309.705 C 102.858 311.837,106.766 313.728,107.230 313.907 C 107.735 314.102,107.969 314.401,107.812 314.654 C 107.657 314.906,107.711 314.978,107.945 314.833 C 108.443 314.525,110.262 315.329,110.006 315.743 C 109.902 315.912,110.043 315.963,110.319 315.857 C 110.596 315.751,120.171 320.204,131.597 325.753 C 166.641 342.773,174.354 346.501,182.117 350.168 C 186.232 352.112,190.632 354.278,191.894 354.980 C 193.157 355.682,195.621 356.666,197.369 357.166 C 199.117 357.666,204.818 359.447,210.036 361.125 C 232.638 368.391,230.735 367.964,233.792 366.450 C 236.167 365.273,244.509 361.247,257.664 354.929 C 262.381 352.663,272.482 347.734,280.109 343.975 C 297.801 335.257,306.576 331.022,306.946 331.022 C 307.107 331.022,307.293 330.899,307.360 330.748 C 307.427 330.598,308.385 330.037,309.489 329.501 C 310.593 328.966,317.529 325.558,324.903 321.928 C 338.720 315.127,338.906 315.042,338.469 315.750 C 338.306 316.013,338.369 316.072,338.636 315.907 C 338.871 315.762,338.988 315.521,338.896 315.372 C 338.804 315.223,342.234 313.361,346.519 311.235 L 354.310 307.368 352.163 306.404 C 350.982 305.874,349.150 305.138,348.092 304.769 C 346.125 304.083,324.992 295.786,322.561 294.746 C 321.822 294.430,321.106 293.991,320.970 293.770 C 320.834 293.550,320.844 279.685,320.993 262.960 L 321.264 232.551 324.957 230.635 C 326.988 229.581,329.799 228.112,331.204 227.369 C 342.128 221.598,348.227 218.602,348.591 218.827 C 348.829 218.974,348.921 218.934,348.799 218.736 C 348.453 218.178,350.625 217.075,351.555 217.336 C 352.149 217.503,352.232 217.469,351.859 217.211 C 351.293 216.821,355.581 214.396,356.181 214.766 C 356.352 214.872,356.574 214.749,356.672 214.492 C 356.771 214.235,358.428 213.210,360.356 212.213 C 364.640 209.998,364.683 210.628,359.836 204.528 C 357.618 201.736,353.091 196.046,349.776 191.882 C 346.187 187.373,343.855 184.140,344.011 183.888 C 344.166 183.637,344.115 183.562,343.885 183.704 C 343.387 184.012,341.522 181.817,341.842 181.300 C 341.975 181.085,341.916 181.013,341.711 181.139 C 341.188 181.462,340.013 180.072,340.349 179.529 C 340.518 179.256,340.471 179.178,340.230 179.328 C 340.007 179.465,338.871 178.392,337.619 176.858 C 335.428 174.178,334.969 173.419,335.858 173.954 C 336.143 174.125,336.113 173.962,335.778 173.519 C 334.960 172.436,334.902 172.396,335.149 173.084 C 335.533 174.152,335.265 173.867,332.083 169.822 C 330.395 167.677,327.331 163.792,325.274 161.190 C 323.216 158.588,321.537 156.361,321.542 156.241 C 321.553 155.971,329.935 145.101,331.387 143.473 C 331.688 143.135,332.397 142.246,332.962 141.496 C 333.527 140.746,334.141 140.226,334.326 140.341 C 334.512 140.455,334.575 140.320,334.468 140.041 C 334.295 139.589,335.181 138.504,335.723 138.504 C 335.839 138.504,335.963 138.300,335.999 138.051 C 336.129 137.170,340.925 131.374,341.322 131.619 C 341.560 131.766,341.614 131.695,341.457 131.441 C 341.146 130.938,343.671 127.724,344.286 127.840 C 344.518 127.884,344.663 127.703,344.608 127.438 C 344.554 127.174,346.941 123.889,349.913 120.139 C 352.885 116.389,356.707 111.527,358.407 109.335 C 360.106 107.142,361.996 104.815,362.606 104.164 L 363.716 102.979 351.110 96.773 C 322.415 82.646,290.006 66.714,267.701 55.770 L 243.978 44.130 242.243 46.061 C 241.289 47.124,240.617 47.664,240.750 47.263 C 240.883 46.861,240.879 46.634,240.740 46.757 C 240.601 46.881,240.420 47.337,240.336 47.772 C 240.146 48.757,236.938 52.560,236.388 52.452 C 236.165 52.408,235.975 52.645,235.966 52.978 C 235.945 53.726,230.715 59.933,230.314 59.685 C 230.155 59.587,229.715 59.872,229.337 60.319 L 228.650 61.131 229.471 60.436 C 231.152 59.013,230.183 60.393,226.411 64.796 C 224.276 67.287,222.362 69.222,222.158 69.096 C 221.943 68.963,221.897 69.046,222.049 69.292 C 222.273 69.654,218.261 74.939,215.083 78.467 C 213.870 79.815,213.342 80.446,207.232 87.866 C 204.158 91.599,201.272 95.076,200.819 95.593 L 199.995 96.533 199.176 95.577 C 198.726 95.051,195.411 91.109,191.809 86.818 C 188.207 82.526,183.804 77.332,182.023 75.277 C 180.096 73.051,178.892 71.367,179.048 71.114 C 179.202 70.865,179.151 70.788,178.926 70.927 C 178.714 71.058,176.286 68.504,173.487 65.205 C 162.164 51.860,157.849 46.577,157.897 46.115 C 157.924 45.847,157.825 45.704,157.676 45.796 C 157.527 45.888,157.024 45.557,156.559 45.062 C 155.429 43.859,156.132 43.609,145.620 48.955 M156.022 61.766 C 157.226 63.192,161.907 68.818,166.423 74.269 C 170.940 79.720,177.755 87.916,181.569 92.483 C 185.383 97.049,188.560 100.943,188.629 101.134 C 188.698 101.326,183.853 103.883,177.863 106.815 C 163.761 113.719,131.438 129.409,118.613 135.576 C 113.093 138.230,104.142 142.573,98.723 145.226 L 88.869 150.050 87.265 148.292 C 86.383 147.324,84.055 144.480,82.093 141.971 C 80.130 139.462,75.528 133.631,71.866 129.015 C 58.668 112.375,55.109 107.753,55.109 107.250 C 55.109 107.053,60.406 104.297,66.880 101.125 C 73.353 97.953,87.600 90.962,98.540 85.589 C 115.455 77.283,147.266 61.766,151.460 59.777 C 153.398 58.857,153.663 58.973,156.022 61.766 M251.183 61.201 C 253.644 62.343,259.763 65.320,264.781 67.817 C 269.799 70.314,276.533 73.630,279.745 75.186 C 282.956 76.742,290.511 80.434,296.533 83.390 C 302.555 86.346,308.960 89.465,310.766 90.320 C 326.898 97.960,344.526 106.759,344.526 107.172 C 344.526 107.406,338.145 115.543,328.685 127.372 C 324.270 132.892,319.286 139.133,317.608 141.241 C 315.930 143.349,313.665 146.167,312.575 147.505 L 310.593 149.936 291.154 140.441 C 280.463 135.219,265.885 128.107,258.759 124.636 C 223.097 107.266,211.318 101.402,211.315 101.015 C 211.315 100.871,212.347 99.557,213.609 98.096 C 214.872 96.634,216.965 94.124,218.260 92.518 C 219.556 90.912,224.230 85.233,228.647 79.897 C 233.065 74.561,238.722 67.704,241.219 64.660 C 246.488 58.236,245.520 58.572,251.183 61.201 M232.861 128.861 C 245.972 132.494,251.155 146.745,242.472 155.290 L 240.333 157.396 241.243 157.969 C 246.226 161.107,248.835 168.057,247.294 174.088 C 243.450 189.132,220.600 193.138,208.326 180.918 C 205.442 178.047,205.482 178.166,207.047 177.101 C 207.709 176.651,209.537 175.052,211.111 173.549 L 213.971 170.815 216.233 172.931 C 223.266 179.510,234.891 178.485,236.876 171.112 C 238.170 166.306,234.564 163.083,227.555 162.780 L 223.175 162.591 223.073 157.755 L 222.972 152.920 226.018 152.920 C 234.047 152.920,238.316 148.161,235.067 142.834 C 231.735 137.373,223.620 137.480,216.218 143.083 L 213.755 144.947 210.001 141.206 C 205.657 136.876,205.682 137.168,209.406 134.178 C 216.731 128.296,224.482 126.539,232.861 128.861 M180.109 129.362 C 192.585 132.319,197.969 147.080,189.309 154.585 C 187.878 155.826,187.821 155.944,188.471 156.334 C 200.386 163.476,198.675 180.051,185.443 185.656 L 183.029 186.679 168.248 186.794 C 160.119 186.857,152.769 186.806,151.916 186.680 L 150.365 186.452 150.365 157.885 C 150.365 142.174,150.474 129.209,150.608 129.075 C 151.126 128.558,177.809 128.817,180.109 129.362 M161.120 139.861 C 161.016 140.134,160.975 143.060,161.031 146.364 L 161.131 152.372 168.978 152.372 L 176.825 152.372 179.015 151.277 C 183.943 148.813,184.043 142.821,179.197 140.414 C 177.141 139.393,161.484 138.914,161.120 139.861 M161.032 169.252 L 161.131 175.730 170.375 175.827 C 183.231 175.963,185.766 174.926,185.766 169.529 C 185.766 163.800,183.466 162.774,170.624 162.774 L 160.932 162.774 161.032 169.252 M95.031 166.206 C 117.837 177.405,180.304 208.320,188.230 212.332 C 193.020 214.756,192.953 214.569,190.201 217.771 C 188.247 220.045,177.982 232.662,162.937 251.282 C 159.692 255.298,156.798 258.783,156.507 259.024 C 156.078 259.380,154.946 258.908,150.526 256.528 C 147.527 254.914,140.146 251.033,134.124 247.904 C 123.106 242.179,108.576 234.605,72.707 215.889 C 55.043 206.673,53.303 205.685,53.728 205.111 C 53.986 204.764,55.839 202.514,57.847 200.111 C 59.854 197.708,63.568 193.128,66.099 189.933 C 71.232 183.456,84.063 167.531,86.300 164.864 C 88.137 162.672,87.695 162.604,95.031 166.206 M323.276 177.281 C 329.482 185.059,337.130 194.615,340.272 198.517 C 343.415 202.418,345.985 205.712,345.985 205.836 C 345.985 205.960,343.974 207.103,341.515 208.376 C 339.056 209.650,335.894 211.304,334.489 212.053 C 333.084 212.803,327.911 215.509,322.993 218.068 C 318.075 220.628,312.409 223.586,310.401 224.642 C 304.567 227.713,290.789 234.901,285.036 237.875 C 266.399 247.509,249.709 256.181,246.844 257.719 L 243.506 259.511 241.878 257.584 C 240.983 256.524,233.386 247.199,224.996 236.861 C 216.606 226.524,209.192 217.420,208.520 216.631 C 207.849 215.843,207.299 215.066,207.299 214.905 C 207.299 214.588,221.221 207.522,239.234 198.697 C 245.456 195.648,264.097 186.408,280.657 178.164 C 297.217 169.920,311.042 163.166,311.379 163.157 C 311.759 163.146,316.286 168.520,323.276 177.281 M202.990 255.054 C 203.028 266.827,203.028 286.041,202.990 297.750 C 202.951 309.460,202.920 325.348,202.920 333.057 L 202.920 347.073 199.691 348.695 L 196.462 350.316 196.217 343.474 C 195.993 337.248,196.016 293.840,196.266 251.269 L 196.365 234.473 198.060 232.312 L 199.755 230.152 201.338 231.900 L 202.920 233.647 202.990 255.054 M235.401 272.134 C 236.505 273.445,238.613 275.940,240.085 277.679 C 241.557 279.417,243.998 282.359,245.508 284.215 C 247.019 286.072,248.301 287.591,248.358 287.591 C 248.415 287.591,250.507 286.524,253.007 285.219 C 255.506 283.914,257.660 282.847,257.793 282.847 C 257.927 282.847,257.993 291.889,257.941 302.941 L 257.847 323.035 245.580 329.271 C 238.833 332.701,233.126 335.391,232.897 335.250 C 232.265 334.859,232.305 269.700,232.938 269.730 C 233.189 269.741,234.297 270.824,235.401 272.134 M281.664 291.096 L 281.569 311.389 276.095 314.265 C 273.084 315.847,270.414 317.144,270.161 317.147 C 269.796 317.152,269.721 313.007,269.796 297.014 L 269.891 276.875 275.547 273.873 C 278.659 272.222,281.329 270.856,281.481 270.837 C 281.633 270.818,281.716 279.935,281.664 291.096 " stroke="none" fill="#000000" fill-rule="evenodd"></path></g></svg>